<svg width="18" height="17" viewBox="0 0 18 17" fill="none" xmlns="http://www.w3.org/2000/svg">
<path d="M15.75 4.03676H1.6875V3.49662L14.0625 2.54598V3.49662H15.75V1.87622C15.75 0.687919 14.7476 -0.14605 13.5236 0.0213923L2.2275 1.5705C1.00238 1.73902 0 2.84846 0 4.03676V14.8395C0 15.4125 0.237053 15.962 0.65901 16.3672C1.08097 16.7724 1.65326 17 2.25 17H15.75C16.3467 17 16.919 16.7724 17.341 16.3672C17.7629 15.962 18 15.4125 18 14.8395V6.1973C18 5.62429 17.7629 5.07474 17.341 4.66956C16.919 4.26438 16.3467 4.03676 15.75 4.03676ZM14.0625 11.6051C13.8408 11.6051 13.6213 11.5631 13.4165 11.4815C13.2118 11.4 13.0257 11.2806 12.869 11.13C12.7123 10.9794 12.588 10.8007 12.5033 10.604C12.4185 10.4073 12.3749 10.1965 12.375 9.98365C12.3751 9.77078 12.4188 9.56001 12.5037 9.36338C12.5886 9.16674 12.713 8.98809 12.8698 8.83762C13.0266 8.68715 13.2128 8.56781 13.4176 8.48642C13.6224 8.40503 13.8419 8.36317 14.0636 8.36324C14.5113 8.36338 14.9406 8.5343 15.2571 8.83839C15.5736 9.14247 15.7513 9.55482 15.7511 9.98472C15.751 10.4146 15.573 10.8269 15.2563 11.1307C14.9396 11.4346 14.5102 11.6053 14.0625 11.6051Z" fill="#141414"/>
</svg>
