<svg width="25" height="24" viewBox="0 0 25 24" fill="none" xmlns="http://www.w3.org/2000/svg">
<path d="M24.35 5.75C24.134 5.37577 23.8247 5.06392 23.4523 4.84484C23.0799 4.62577 22.657 4.50696 22.225 4.5H6.225L5.5 1.675C5.42675 1.4023 5.26333 1.16243 5.03635 0.994466C4.80937 0.8265 4.5322 0.740334 4.25 0.750001H1.75C1.41848 0.750001 1.10054 0.881697 0.866116 1.11612C0.631696 1.35054 0.5 1.66848 0.5 2C0.5 2.33152 0.631696 2.64946 0.866116 2.88388C1.10054 3.1183 1.41848 3.25 1.75 3.25H3.3L6.75 16.075C6.82325 16.3477 6.98667 16.5876 7.21365 16.7555C7.44063 16.9235 7.7178 17.0097 8 17H19.25C19.4808 16.9993 19.707 16.9347 19.9033 16.8133C20.0997 16.692 20.2586 16.5186 20.3625 16.3125L24.4625 8.1125C24.6402 7.74002 24.7229 7.32934 24.7033 6.9171C24.6837 6.50487 24.5623 6.10391 24.35 5.75ZM18.475 14.5H8.95L6.9125 7H22.225L18.475 14.5Z" fill="white"/>
<path d="M7.375 23.25C8.41053 23.25 9.25 22.4105 9.25 21.375C9.25 20.3395 8.41053 19.5 7.375 19.5C6.33947 19.5 5.5 20.3395 5.5 21.375C5.5 22.4105 6.33947 23.25 7.375 23.25Z" fill="white"/>
<path d="M19.875 23.25C20.9105 23.25 21.75 22.4105 21.75 21.375C21.75 20.3395 20.9105 19.5 19.875 19.5C18.8395 19.5 18 20.3395 18 21.375C18 22.4105 18.8395 23.25 19.875 23.25Z" fill="white"/>
</svg>
