<svg width="261" height="25" viewBox="0 0 261 25" fill="none" xmlns="http://www.w3.org/2000/svg">
<rect x="252" y="23" width="9" height="2" rx="1" fill="#1F1F1F"/>
<rect x="240" y="22" width="9" height="3" rx="1" fill="#1F1F1F"/>
<rect x="228" y="22" width="9" height="3" rx="1" fill="#1F1F1F"/>
<rect x="216" y="22" width="9" height="3" rx="1" fill="#1F1F1F"/>
<rect x="204" y="14" width="9" height="11" rx="1" fill="#1F1F1F"/>
<rect x="192" y="16" width="9" height="9" rx="1" fill="#1F1F1F"/>
<rect x="180" y="8" width="9" height="17" rx="1" fill="#1F1F1F"/>
<rect x="168" y="11" width="9" height="14" rx="1" fill="#1F1F1F"/>
<rect x="156" y="14" width="9" height="11" rx="1" fill="#1F1F1F"/>
<rect x="144" y="18" width="9" height="7" rx="1" fill="#1F1F1F"/>
<rect x="132" y="20" width="9" height="5" rx="1" fill="#1F1F1F"/>
<rect x="120" y="14" width="9" height="11" rx="1" fill="#1F1F1F"/>
<rect x="108" y="8" width="9" height="17" rx="1" fill="#1F1F1F"/>
<rect x="96" y="18" width="9" height="7" rx="1" fill="#1F1F1F"/>
<rect x="84" y="11" width="9" height="14" rx="1" fill="#1F1F1F"/>
<rect x="72" y="14" width="9" height="11" rx="1" fill="#1F1F1F"/>
<rect x="60" y="11" width="9" height="14" rx="1" fill="#1F1F1F"/>
<rect x="48" y="4" width="9" height="21" rx="1" fill="#1F1F1F"/>
<rect x="36" y="11" width="9" height="14" rx="1" fill="#1F1F1F"/>
<rect x="24" y="8" width="9" height="17" rx="1" fill="#1F1F1F"/>
<rect x="12" y="2" width="9" height="23" rx="1" fill="#1F1F1F"/>
<rect width="9" height="25" rx="1" fill="#1F1F1F"/>
</svg>
