<svg width="120" height="120" viewBox="0 0 120 120" fill="none" xmlns="http://www.w3.org/2000/svg">
<path d="M5 0.5H115C117.485 0.5 119.5 2.51472 119.5 5V119.5H0.5V5C0.5 2.51472 2.51472 0.5 5 0.5Z" fill="#121212"/>
<path d="M5 0.5H115C117.485 0.5 119.5 2.51472 119.5 5V119.5H0.5V5C0.5 2.51472 2.51472 0.5 5 0.5Z" fill="url(#paint0_linear_517_2614)" fill-opacity="0.1"/>
<path d="M5 0.5H115C117.485 0.5 119.5 2.51472 119.5 5V119.5H0.5V5C0.5 2.51472 2.51472 0.5 5 0.5Z" fill="url(#paint1_linear_517_2614)" fill-opacity="0.1"/>
<path d="M5 0.5H115C117.485 0.5 119.5 2.51472 119.5 5V119.5H0.5V5C0.5 2.51472 2.51472 0.5 5 0.5Z" stroke="url(#paint2_linear_517_2614)"/>
<defs>
<linearGradient id="paint0_linear_517_2614" x1="60" y1="0" x2="60" y2="60" gradientUnits="userSpaceOnUse">
<stop stop-color="#FFD100"/>
<stop offset="1" stop-opacity="0"/>
</linearGradient>
<linearGradient id="paint1_linear_517_2614" x1="60" y1="120" x2="60" y2="60" gradientUnits="userSpaceOnUse">
<stop stop-color="#FFD100"/>
<stop offset="1" stop-opacity="0"/>
</linearGradient>
<linearGradient id="paint2_linear_517_2614" x1="120" y1="4.47039e-08" x2="3.25721e-06" y2="121.5" gradientUnits="userSpaceOnUse">
<stop stop-color="#A020F0"/>
<stop offset="0.338542" stop-opacity="0"/>
</linearGradient>
</defs>
</svg>