<svg width="28" height="15" viewBox="0 0 28 15" fill="none" xmlns="http://www.w3.org/2000/svg">
<path d="M0 12.0049H14.1567V14.9995H0V12.0049Z" fill="url(#paint0_linear_415_736)"/>
<path d="M0.012084 0.000456695H13.8965V2.99514H0.012084V0.000456695Z" fill="url(#paint1_linear_415_736)"/>
<path d="M15.1017 0.000456695L27.6535 14.9995L23.7785 15L12.8076 1.9254L15.1017 0.000456695Z" fill="url(#paint2_linear_415_736)"/>
<path d="M15.1017 0.000456695L27.6535 14.9995L23.7785 15L12.5353 0.00045727L15.1017 0.000456695Z" fill="url(#paint3_linear_415_736)"/>
<path d="M12.8075 13.0751L23.7784 0.000462827L26.0725 1.92541L15.1016 15L12.8075 13.0751Z" fill="url(#paint4_linear_415_736)"/>
<path d="M12.8075 13.0751L23.7784 0.000462827L26.0725 1.92541L15.1016 15L12.8075 13.0751Z" fill="url(#paint5_linear_415_736)"/>
<path d="M12.3991 15L23.7792 0H27.6535L15.1024 14.9995L12.3991 15Z" fill="url(#paint6_linear_415_736)"/>
<path d="M0.012084 5.99913H13.0798V8.99381H0.012084V5.99913Z" fill="url(#paint7_linear_415_736)"/>
<defs>
<linearGradient id="paint0_linear_415_736" x1="0" y1="7.5" x2="27.6535" y2="7.5" gradientUnits="userSpaceOnUse">
<stop stopColor="#D2BD8E"/>
<stop offset="1" stopColor="#C3A46B"/>
</linearGradient>
<linearGradient id="paint1_linear_415_736" x1="0" y1="7.5" x2="27.6535" y2="7.5" gradientUnits="userSpaceOnUse">
<stop stopColor="#D2BD8E"/>
<stop offset="1" stopColor="#C3A46B"/>
</linearGradient>
<linearGradient id="paint2_linear_415_736" x1="0" y1="7.5" x2="27.6535" y2="7.5" gradientUnits="userSpaceOnUse">
<stop stopColor="#D2BD8E"/>
<stop offset="1" stopColor="#C3A46B"/>
</linearGradient>
<linearGradient id="paint3_linear_415_736" x1="0" y1="7.5" x2="27.6535" y2="7.5" gradientUnits="userSpaceOnUse">
<stop stopColor="#D2BD8E"/>
<stop offset="1" stopColor="#C3A46B"/>
</linearGradient>
<linearGradient id="paint4_linear_415_736" x1="0" y1="7.5" x2="27.6535" y2="7.5" gradientUnits="userSpaceOnUse">
<stop stopColor="#D2BD8E"/>
<stop offset="1" stopColor="#C3A46B"/>
</linearGradient>
<linearGradient id="paint5_linear_415_736" x1="0" y1="7.5" x2="27.6535" y2="7.5" gradientUnits="userSpaceOnUse">
<stop stopColor="#D2BD8E"/>
<stop offset="1" stopColor="#C3A46B"/>
</linearGradient>
<linearGradient id="paint6_linear_415_736" x1="0" y1="7.5" x2="27.6535" y2="7.5" gradientUnits="userSpaceOnUse">
<stop stopColor="#D2BD8E"/>
<stop offset="1" stopColor="#C3A46B"/>
</linearGradient>
<linearGradient id="paint7_linear_415_736" x1="0" y1="7.5" x2="27.6535" y2="7.5" gradientUnits="userSpaceOnUse">
<stop stopColor="#D2BD8E"/>
<stop offset="1" stopColor="#C3A46B"/>
</linearGradient>
</defs>
</svg>
