<svg width="25" height="21" viewBox="0 0 25 21" fill="none" xmlns="http://www.w3.org/2000/svg">
<path d="M24.6407 3.06399C23.7528 3.46011 22.7966 3.72648 21.7926 3.84259C22.8171 3.22791 23.6025 2.25808 23.9713 1.09702C23.0152 1.66389 21.9497 2.08051 20.8228 2.29906C19.9213 1.33607 18.6305 0.735046 17.203 0.735046C13.9999 0.735046 11.6505 3.71965 12.3744 6.82035C8.25606 6.61546 4.60215 4.64166 2.1571 1.6434C0.85945 3.8699 1.48096 6.7862 3.6938 8.26143C2.88106 8.23411 2.11612 8.01556 1.4468 7.63993C1.39217 9.93472 3.03814 12.0861 5.42172 12.5642C4.72509 12.7554 3.96016 12.7964 3.18157 12.6461C3.8099 14.6131 5.64028 16.0473 7.81214 16.0883C5.72906 17.7206 3.09961 18.4514 0.470154 18.1441C2.6625 19.551 5.27147 20.3706 8.07167 20.3706C17.2782 20.3706 22.4756 12.5983 22.1614 5.62515C23.1381 4.92851 23.9782 4.06113 24.6407 3.06399Z" fill="black"/>
</svg>
